# xmcd
#
# Track frame offsets:
#	150
#	14280
#	32408
#	52118
#	71303
#	86678
#	101387
#	116617
#	131870
#	149456
#	165846
#	182689
#	197863
#	214483
#	233243
#	250003
#	267400
#	280694
#	295490
#
# Disc length: 4147
#
# Revision: 1
# Processed by: cddbd v1.5.1PL0 Copyright (c) Steve Scherf et al.
# Submitted via: audiograbber 1.83.01
# Normalized: r0:DSETVAR1
#
DISCID=19103113
DTITLE=Various Artist - RC43
DYEAR=1997
DGENRE=Country
TTITLE0=Michael Peterson - Drink Swear Steal and Lie
TTITLE1=Alan Jackson - There Goes
TTITLE2=John Michael Montgomery - How Was I To Know
TTITLE3=Trisha Yearwood - How Do I Live
TTITLE4=Neal McCoy - The Shake
TTITLE5=Kenny Chesney - She's Got It All
TTITLE6=Ricochet - He Left A Lot To Be Desired
TTITLE7=Tracy Lawrence - How A Cowgirl Says Goodbye
TTITLE8=Toby Kieth - We Were In Love
TTITLE9=Lee Ann Womack - The Fool
TTITLE10=Diamond Rio - How Your Love Makes Me Feel
TTITLE11=Tracy Byrd - Don't Love Make A Diamond Shine
TTITLE12=Collin Raye - What The Hearts Want
TTITLE13=Billy Ray Cyrus - It's All The Same To Me
TTITLE14=Clint Black - Still Holding On
TTITLE15=Alabama - Dancin' Shaggin' On The Boulevard
TTITLE16=Clay Walker - One Two I Love You
TTITLE17=David Kersh - Day In Day Out
TTITLE18=Vince Gill - You And You Alone
EXTD=
EXTT0=
EXTT1=
EXTT2=
EXTT3=
EXTT4=
EXTT5=
EXTT6=
EXTT7=
EXTT8=
EXTT9=
EXTT10=
EXTT11=
EXTT12=
EXTT13=
EXTT14=
EXTT15=
EXTT16=
EXTT17=
EXTT18=
PLAYORDER=
